<svg width="305" height="48" viewBox="0 0 305 48" fill="none" xmlns="http://www.w3.org/2000/svg">
<path d="M21.2 47.72C17.72 47.72 14.66 47.16 12.02 46.04C9.42 44.88 7.24 43.26 5.48 41.18C3.72 39.1 2.4 36.66 1.52 33.86C0.64 31.06 0.2 28.02 0.2 24.74C0.2 21.54 0.68 18.58 1.64 15.86C2.6 13.14 3.98 10.76 5.78 8.72C7.62 6.68 9.84 5.1 12.44 3.98C15.04 2.82 17.98 2.24 21.26 2.24C22.7 2.24 24.3 2.4 26.06 2.72C27.86 3 29.6 3.46 31.28 4.1C32.96 4.7 34.36 5.5 35.48 6.5L31.16 12.02C30.44 11.18 29.54 10.46 28.46 9.86C27.38 9.26 26.24 8.82 25.04 8.54C23.84 8.22 22.68 8.06 21.56 8.06C19.24 8.06 17.28 8.54 15.68 9.5C14.08 10.42 12.8 11.68 11.84 13.28C10.88 14.88 10.18 16.66 9.74 18.62C9.34 20.54 9.14 22.52 9.14 24.56C9.14 28.16 9.64 31.26 10.64 33.86C11.68 36.42 13.16 38.4 15.08 39.8C17 41.16 19.3 41.84 21.98 41.84C23.66 41.84 25.44 41.62 27.32 41.18C29.2 40.7 31.18 39.92 33.26 38.84L35.72 43.28C34.56 44.04 33.42 44.7 32.3 45.26C31.18 45.82 30.04 46.28 28.88 46.64C27.72 47 26.5 47.26 25.22 47.42C23.98 47.62 22.64 47.72 21.2 47.72ZM46.2214 16.58C47.1014 18.58 47.5814 20.68 47.6614 22.88C48.6614 21.2 50.0614 19.74 51.8614 18.5C53.6614 17.22 55.5614 16.58 57.5614 16.58L56.3614 23.72C54.6014 23.72 53.0214 24.18 51.6214 25.1C50.2614 25.98 48.9614 27.36 47.7214 29.24V47H40.5214V25.22C40.5214 24.46 40.4614 23.58 40.3414 22.58C40.2214 21.54 40.0214 20.54 39.7414 19.58C39.4614 18.62 39.0814 17.82 38.6014 17.18L46.2214 16.58ZM72.6734 16.34C75.4334 16.34 77.6934 16.94 79.4534 18.14C81.2534 19.34 82.5734 20.9 83.4134 22.82C84.2934 24.7 84.7334 26.72 84.7334 28.88C84.7334 29.52 84.6934 30.2 84.6134 30.92C84.5334 31.6 84.3934 32.28 84.1934 32.96H65.9534C65.9534 36.16 66.7134 38.62 68.2334 40.34C69.7534 42.02 71.7334 42.86 74.1734 42.86C75.3334 42.86 76.5734 42.66 77.8934 42.26C79.2534 41.86 80.6534 41.24 82.0934 40.4L84.0134 44.48C82.6534 45.56 80.9334 46.36 78.8534 46.88C76.8134 47.4 74.9734 47.66 73.3334 47.66C71.0134 47.66 68.9134 47.3 67.0334 46.58C65.1934 45.86 63.6134 44.82 62.2934 43.46C61.0134 42.1 60.0334 40.48 59.3534 38.6C58.6734 36.72 58.3334 34.62 58.3334 32.3C58.3334 30.18 58.6534 28.18 59.2934 26.3C59.9334 24.38 60.8734 22.68 62.1134 21.2C63.3534 19.68 64.8534 18.5 66.6134 17.66C68.4134 16.78 70.4334 16.34 72.6734 16.34ZM72.3734 21.26C71.0534 21.26 69.9334 21.62 69.0134 22.34C68.1334 23.06 67.4534 23.96 66.9734 25.04C66.4934 26.12 66.2134 27.18 66.1334 28.22H77.2334C77.4334 27.06 77.3734 25.96 77.0534 24.92C76.7334 23.84 76.1734 22.96 75.3734 22.28C74.5734 21.6 73.5734 21.26 72.3734 21.26ZM101.662 16.46C104.862 16.46 107.322 17.28 109.042 18.92C110.802 20.52 111.682 22.94 111.682 26.18V39.32C111.682 40.48 111.862 41.26 112.222 41.66C112.582 42.06 113.042 42.26 113.602 42.26C114.002 42.26 114.382 42.22 114.742 42.14C115.142 42.06 115.542 41.94 115.942 41.78L117.082 45.86C116.202 46.34 115.202 46.72 114.082 47C112.962 47.32 111.942 47.48 111.022 47.48C109.582 47.48 108.422 47.18 107.542 46.58C106.662 45.98 106.042 44.94 105.682 43.46C104.562 45.02 103.242 46.12 101.722 46.76C100.242 47.36 98.5619 47.66 96.6819 47.66C94.3619 47.66 92.3619 47 90.6819 45.68C89.0419 44.32 88.2219 42.42 88.2219 39.98C88.2219 37.82 88.7219 36.06 89.7219 34.7C90.7619 33.3 92.1019 32.24 93.7419 31.52C95.3819 30.76 97.1419 30.24 99.0219 29.96C100.942 29.68 102.762 29.54 104.482 29.54V25.64C104.482 24.56 104.322 23.72 104.002 23.12C103.722 22.52 103.262 22.1 102.622 21.86C101.982 21.58 101.162 21.44 100.162 21.44C98.8019 21.44 97.4419 21.82 96.0819 22.58C94.7219 23.34 93.5219 24.12 92.4819 24.92L89.5419 20.18C91.3419 18.94 93.2619 18.02 95.3019 17.42C97.3819 16.78 99.5019 16.46 101.662 16.46ZM104.482 34.46C103.642 34.46 102.722 34.5 101.722 34.58C100.722 34.66 99.7619 34.86 98.8419 35.18C97.9219 35.5 97.1619 35.98 96.5619 36.62C96.0019 37.26 95.7219 38.14 95.7219 39.26C95.7219 40.18 96.0819 40.9 96.8019 41.42C97.5619 41.9 98.3619 42.14 99.2019 42.14C100.322 42.14 101.262 41.82 102.022 41.18C102.822 40.54 103.422 39.74 103.822 38.78C104.262 37.78 104.482 36.8 104.482 35.84V34.46ZM129.51 8.48C129.23 9.88 128.99 11.32 128.79 12.8C128.59 14.28 128.47 15.74 128.43 17.18H135.69L134.55 21.92H128.43V38.42C128.43 38.86 128.47 39.4 128.55 40.04C128.63 40.68 128.85 41.24 129.21 41.72C129.57 42.2 130.15 42.44 130.95 42.44C131.63 42.44 132.29 42.38 132.93 42.26C133.57 42.14 134.21 42 134.85 41.84L135.69 46.34C134.65 46.66 133.47 46.94 132.15 47.18C130.87 47.46 129.69 47.6 128.61 47.6C126.05 47.6 124.15 47 122.91 45.8C121.71 44.6 121.11 42.68 121.11 40.04V21.92H116.19V17.96C117.43 17.92 118.51 17.62 119.43 17.06C120.35 16.46 121.13 15.7 121.77 14.78C122.45 13.82 122.99 12.8 123.39 11.72C123.83 10.6 124.17 9.52 124.41 8.48H129.51ZM147.819 6.32C147.819 7.56 147.379 8.64 146.499 9.56C145.619 10.48 144.539 10.94 143.259 10.94C142.019 10.94 140.939 10.48 140.019 9.56C139.099 8.64 138.639 7.56 138.639 6.32C138.639 5.04 139.099 3.96 140.019 3.08C140.939 2.2 142.019 1.76 143.259 1.76C144.539 1.76 145.619 2.2 146.499 3.08C147.379 3.96 147.819 5.04 147.819 6.32ZM146.799 17.18V47H139.599V20.42L138.939 17.18H146.799ZM158.378 17.18L163.838 32.9C164.158 33.74 164.398 34.58 164.558 35.42C164.758 36.22 164.938 37.06 165.098 37.94C165.258 37.1 165.398 36.26 165.518 35.42C165.638 34.54 165.838 33.7 166.118 32.9L171.698 17.18H178.178L167.618 47.24H161.138L150.638 17.18H158.378ZM192.908 16.34C195.668 16.34 197.928 16.94 199.688 18.14C201.488 19.34 202.808 20.9 203.648 22.82C204.528 24.7 204.968 26.72 204.968 28.88C204.968 29.52 204.928 30.2 204.848 30.92C204.768 31.6 204.628 32.28 204.428 32.96H186.188C186.188 36.16 186.948 38.62 188.468 40.34C189.988 42.02 191.968 42.86 194.408 42.86C195.568 42.86 196.808 42.66 198.128 42.26C199.488 41.86 200.888 41.24 202.328 40.4L204.248 44.48C202.888 45.56 201.168 46.36 199.088 46.88C197.048 47.4 195.208 47.66 193.568 47.66C191.248 47.66 189.148 47.3 187.268 46.58C185.428 45.86 183.848 44.82 182.528 43.46C181.248 42.1 180.268 40.48 179.588 38.6C178.908 36.72 178.568 34.62 178.568 32.3C178.568 30.18 178.888 28.18 179.528 26.3C180.168 24.38 181.108 22.68 182.348 21.2C183.588 19.68 185.088 18.5 186.848 17.66C188.648 16.78 190.668 16.34 192.908 16.34ZM192.608 21.26C191.288 21.26 190.168 21.62 189.248 22.34C188.368 23.06 187.688 23.96 187.208 25.04C186.728 26.12 186.448 27.18 186.368 28.22H197.468C197.668 27.06 197.608 25.96 197.288 24.92C196.968 23.84 196.408 22.96 195.608 22.28C194.808 21.6 193.808 21.26 192.608 21.26ZM240.104 16.52C242.144 16.52 243.924 16.98 245.444 17.9C246.964 18.82 248.224 20.04 249.224 21.56C250.264 23.08 251.024 24.74 251.504 26.54C252.024 28.34 252.284 30.14 252.284 31.94C252.284 34.02 251.964 36.02 251.324 37.94C250.724 39.82 249.824 41.5 248.624 42.98C247.424 44.46 245.944 45.62 244.184 46.46C242.424 47.3 240.424 47.72 238.184 47.72C236.344 47.72 234.684 47.4 233.204 46.76C231.764 46.08 230.464 45.02 229.304 43.58L228.044 47.06H224.324C224.404 46.38 224.464 45.72 224.504 45.08C224.544 44.4 224.564 43.74 224.564 43.1V4.22L223.724 0.92H231.764V15.44C231.764 16.64 231.744 17.56 231.704 18.2C231.664 18.8 231.644 19.26 231.644 19.58C232.924 18.5 234.244 17.72 235.604 17.24C236.964 16.76 238.464 16.52 240.104 16.52ZM237.644 22.04C236.524 22.04 235.444 22.32 234.404 22.88C233.364 23.44 232.484 24.12 231.764 24.92V34.7C231.764 36.02 231.944 37.3 232.304 38.54C232.704 39.78 233.364 40.8 234.284 41.6C235.204 42.4 236.444 42.8 238.004 42.8C239.284 42.8 240.344 42.46 241.184 41.78C242.024 41.06 242.684 40.16 243.164 39.08C243.644 37.96 243.964 36.8 244.124 35.6C244.324 34.4 244.424 33.3 244.424 32.3C244.424 31.3 244.304 30.22 244.064 29.06C243.824 27.86 243.444 26.74 242.924 25.7C242.404 24.62 241.704 23.74 240.824 23.06C239.984 22.38 238.924 22.04 237.644 22.04ZM263.721 16.58C264.601 18.58 265.081 20.68 265.161 22.88C266.161 21.2 267.561 19.74 269.361 18.5C271.161 17.22 273.061 16.58 275.061 16.58L273.861 23.72C272.101 23.72 270.521 24.18 269.121 25.1C267.761 25.98 266.461 27.36 265.221 29.24V47H258.021V25.22C258.021 24.46 257.961 23.58 257.841 22.58C257.721 21.54 257.521 20.54 257.241 19.58C256.961 18.62 256.581 17.82 256.101 17.18L263.721 16.58ZM290.173 47.72C287.173 47.72 284.593 47.04 282.433 45.68C280.313 44.28 278.673 42.42 277.513 40.1C276.393 37.74 275.833 35.12 275.833 32.24C275.833 30.08 276.173 28.06 276.853 26.18C277.533 24.26 278.513 22.58 279.793 21.14C281.113 19.66 282.673 18.5 284.473 17.66C286.273 16.82 288.293 16.4 290.533 16.4C293.573 16.4 296.153 17.1 298.273 18.5C300.393 19.86 302.013 21.72 303.133 24.08C304.293 26.4 304.873 29 304.873 31.88C304.873 34.04 304.533 36.08 303.853 38C303.173 39.88 302.193 41.56 300.913 43.04C299.633 44.48 298.093 45.62 296.293 46.46C294.493 47.3 292.453 47.72 290.173 47.72ZM290.233 42.92C291.633 42.92 292.773 42.58 293.653 41.9C294.533 41.18 295.213 40.28 295.693 39.2C296.173 38.08 296.493 36.9 296.653 35.66C296.853 34.38 296.953 33.2 296.953 32.12C296.953 31 296.873 29.82 296.713 28.58C296.593 27.3 296.313 26.12 295.873 25.04C295.433 23.92 294.773 23.02 293.893 22.34C293.053 21.66 291.913 21.32 290.473 21.32C289.113 21.32 287.993 21.68 287.113 22.4C286.233 23.12 285.553 24.04 285.073 25.16C284.593 26.28 284.253 27.46 284.053 28.7C283.853 29.94 283.753 31.08 283.753 32.12C283.753 33.2 283.833 34.36 283.993 35.6C284.153 36.84 284.453 38.02 284.893 39.14C285.333 40.26 285.973 41.18 286.813 41.9C287.693 42.58 288.833 42.92 290.233 42.92Z" fill="white"/>
</svg>
