<svg width="28" height="31" viewBox="0 0 28 31" fill="none" xmlns="http://www.w3.org/2000/svg">
<path d="M5.86353 14.2432H9.04656V17.3152H5.86353V14.2432ZM5.86353 20.3873H9.04656V23.4594H5.86353V20.3873ZM12.2296 14.2432H15.4126V17.3152H12.2296V14.2432ZM12.2296 20.3873H15.4126V23.4594H12.2296V20.3873ZM18.5957 14.2432H21.7787V17.3152H18.5957V14.2432ZM18.5957 20.3873H21.7787V23.4594H18.5957V20.3873Z" fill="#44484E"/>
<path d="M3.07135 31.0001H24.5708C26.2647 31.0001 27.6422 29.6097 27.6422 27.9001V6.20002C27.6422 4.49036 26.2647 3.10001 24.5708 3.10001H21.4995V0H18.4281V3.10001H9.21405V0H6.1427V3.10001H3.07135C1.3775 3.10001 0 4.49036 0 6.20002V27.9001C0 29.6097 1.3775 31.0001 3.07135 31.0001ZM24.5708 9.30003L24.5723 27.9001H3.07135V9.30003H24.5708Z" fill="#44484E"/>
</svg>
