<svg width="186" height="25" viewBox="0 0 186 25" fill="none" xmlns="http://www.w3.org/2000/svg">
<path d="M0.776 2.2V19H4.952V2.2H0.776ZM6.776 19C8.616 19 10.208 18.656 11.552 17.968C12.896 17.28 13.936 16.312 14.672 15.064C15.408 13.8 15.776 12.312 15.776 10.6C15.776 8.872 15.408 7.384 14.672 6.136C13.936 4.888 12.896 3.92 11.552 3.232C10.208 2.544 8.616 2.2 6.776 2.2H3.464V5.8H6.632C7.272 5.8 7.888 5.88 8.48 6.04C9.088 6.2 9.616 6.464 10.064 6.832C10.528 7.2 10.896 7.696 11.168 8.32C11.44 8.928 11.576 9.688 11.576 10.6C11.576 11.512 11.44 12.28 11.168 12.904C10.896 13.512 10.528 14 10.064 14.368C9.616 14.736 9.088 15 8.48 15.16C7.888 15.32 7.272 15.4 6.632 15.4H3.464V19H6.776ZM23.6336 19.24C25.0416 19.24 26.2336 18.968 27.2096 18.424C28.2016 17.88 28.9856 17.064 29.5616 15.976L26.3216 15.184C26.0496 15.664 25.6816 16.024 25.2176 16.264C24.7696 16.504 24.2256 16.624 23.5856 16.624C23.0256 16.624 22.5536 16.504 22.1696 16.264C21.7856 16.008 21.4976 15.64 21.3056 15.16C21.1136 14.68 21.0176 14.104 21.0176 13.432C21.0336 12.696 21.1296 12.088 21.3056 11.608C21.4976 11.112 21.7776 10.744 22.1456 10.504C22.5136 10.264 22.9696 10.144 23.5136 10.144C23.9456 10.144 24.3216 10.24 24.6416 10.432C24.9616 10.624 25.2096 10.896 25.3856 11.248C25.5616 11.6 25.6496 12.016 25.6496 12.496C25.6496 12.608 25.6176 12.752 25.5536 12.928C25.5056 13.088 25.4416 13.224 25.3616 13.336L26.2256 12.232H19.4096V14.248H29.4896C29.5216 14.136 29.5376 14 29.5376 13.84C29.5376 13.664 29.5376 13.488 29.5376 13.312C29.5376 12.128 29.3056 11.12 28.8416 10.288C28.3776 9.456 27.7056 8.824 26.8256 8.392C25.9456 7.944 24.8656 7.72 23.5856 7.72C22.3056 7.72 21.1936 7.952 20.2496 8.416C19.3216 8.88 18.6096 9.544 18.1136 10.408C17.6176 11.272 17.3696 12.296 17.3696 13.48C17.3696 14.648 17.6256 15.664 18.1376 16.528C18.6496 17.392 19.3696 18.064 20.2976 18.544C21.2416 19.008 22.3536 19.24 23.6336 19.24ZM32.3754 14.992L30.8634 17.392C31.3594 17.776 31.8954 18.128 32.4714 18.448C33.0474 18.752 33.6714 18.992 34.3434 19.168C35.0314 19.36 35.7754 19.456 36.5754 19.456C37.8874 19.456 38.9034 19.16 39.6234 18.568C40.3594 17.96 40.7274 17.064 40.7274 15.88C40.7274 15.192 40.5754 14.64 40.2714 14.224C39.9834 13.808 39.5914 13.464 39.0954 13.192C38.6154 12.92 38.0874 12.68 37.5114 12.472C36.9674 12.264 36.5034 12.096 36.1194 11.968C35.7514 11.824 35.4634 11.672 35.2554 11.512C35.0634 11.352 34.9674 11.152 34.9674 10.912C34.9674 10.704 35.0474 10.536 35.2074 10.408C35.3834 10.28 35.6394 10.216 35.9754 10.216C36.4714 10.216 37.0154 10.36 37.6074 10.648C38.1994 10.92 38.7274 11.272 39.1914 11.704L40.4874 9.352C40.0554 9.032 39.5914 8.752 39.0954 8.512C38.6154 8.272 38.0954 8.08 37.5354 7.936C36.9914 7.792 36.3994 7.72 35.7594 7.72C34.9594 7.72 34.2474 7.84 33.6234 8.08C33.0154 8.32 32.5274 8.672 32.1594 9.136C31.8074 9.6 31.6314 10.168 31.6314 10.84C31.6314 11.544 31.7834 12.12 32.0874 12.568C32.3914 13.016 32.7754 13.376 33.2394 13.648C33.7194 13.904 34.2234 14.128 34.7514 14.32C35.3434 14.496 35.8074 14.664 36.1434 14.824C36.4954 14.984 36.7434 15.152 36.8874 15.328C37.0314 15.488 37.1034 15.688 37.1034 15.928C37.1034 16.184 37.0154 16.392 36.8394 16.552C36.6634 16.712 36.3914 16.792 36.0234 16.792C35.7674 16.792 35.4634 16.744 35.1114 16.648C34.7594 16.536 34.3514 16.352 33.8874 16.096C33.4394 15.824 32.9354 15.456 32.3754 14.992ZM42.5047 3.808C42.5047 4.384 42.7127 4.856 43.1287 5.224C43.5447 5.592 44.0407 5.776 44.6167 5.776C45.2087 5.776 45.7047 5.592 46.1047 5.224C46.5207 4.856 46.7287 4.384 46.7287 3.808C46.7287 3.232 46.5207 2.768 46.1047 2.416C45.7047 2.048 45.2087 1.864 44.6167 1.864C44.0407 1.864 43.5447 2.048 43.1287 2.416C42.7127 2.768 42.5047 3.232 42.5047 3.808ZM42.8647 7.96V19H46.3687V7.96H42.8647ZM48.9455 19.792C49.0255 20.768 49.2895 21.624 49.7375 22.36C50.1855 23.112 50.8495 23.696 51.7295 24.112C52.6255 24.528 53.7535 24.736 55.1135 24.736C56.2495 24.736 57.2735 24.528 58.1855 24.112C59.0975 23.712 59.8255 23.072 60.3695 22.192C60.9295 21.312 61.2095 20.168 61.2095 18.76V7.96H57.7295V18.76C57.7295 19.432 57.6015 19.992 57.3455 20.44C57.1055 20.904 56.7775 21.248 56.3615 21.472C55.9455 21.712 55.4815 21.832 54.9695 21.832C54.5055 21.832 54.0895 21.752 53.7215 21.592C53.3535 21.448 53.0575 21.224 52.8335 20.92C52.6255 20.616 52.4975 20.24 52.4495 19.792H48.9455ZM48.7055 13.336C48.7055 14.568 48.9535 15.6 49.4495 16.432C49.9615 17.264 50.6175 17.896 51.4175 18.328C52.2175 18.744 53.0655 18.952 53.9615 18.952C54.8895 18.952 55.7055 18.736 56.4095 18.304C57.1295 17.856 57.6975 17.216 58.1135 16.384C58.5295 15.536 58.7375 14.52 58.7375 13.336C58.7375 12.136 58.5295 11.12 58.1135 10.288C57.6975 9.456 57.1295 8.824 56.4095 8.392C55.7055 7.944 54.8895 7.72 53.9615 7.72C53.0655 7.72 52.2175 7.928 51.4175 8.344C50.6175 8.76 49.9615 9.384 49.4495 10.216C48.9535 11.048 48.7055 12.088 48.7055 13.336ZM52.5215 13.336C52.5215 12.76 52.6415 12.272 52.8815 11.872C53.1215 11.472 53.4415 11.168 53.8415 10.96C54.2415 10.752 54.6815 10.648 55.1615 10.648C55.4655 10.648 55.7695 10.704 56.0735 10.816C56.3775 10.928 56.6495 11.096 56.8895 11.32C57.1455 11.544 57.3455 11.824 57.4895 12.16C57.6495 12.496 57.7295 12.888 57.7295 13.336C57.7295 13.928 57.6015 14.424 57.3455 14.824C57.0895 15.224 56.7615 15.528 56.3615 15.736C55.9775 15.928 55.5775 16.024 55.1615 16.024C54.6815 16.024 54.2415 15.92 53.8415 15.712C53.4415 15.504 53.1215 15.2 52.8815 14.8C52.6415 14.384 52.5215 13.896 52.5215 13.336ZM71.1779 12.28V19H74.9459V11.896C74.9459 10.568 74.6339 9.536 74.0099 8.8C73.3859 8.064 72.3859 7.696 71.0099 7.696C70.1939 7.696 69.5059 7.864 68.9459 8.2C68.4019 8.536 67.9699 9.008 67.6499 9.616V7.96H64.0019V19H67.6499V12.28C67.6499 11.848 67.7299 11.48 67.8899 11.176C68.0499 10.872 68.2739 10.64 68.5619 10.48C68.8499 10.32 69.1859 10.24 69.5699 10.24C70.1459 10.24 70.5539 10.416 70.7939 10.768C71.0499 11.12 71.1779 11.624 71.1779 12.28ZM83.4226 19.24C84.8306 19.24 86.0226 18.968 86.9986 18.424C87.9906 17.88 88.7746 17.064 89.3506 15.976L86.1106 15.184C85.8386 15.664 85.4706 16.024 85.0066 16.264C84.5586 16.504 84.0146 16.624 83.3746 16.624C82.8146 16.624 82.3426 16.504 81.9586 16.264C81.5746 16.008 81.2866 15.64 81.0946 15.16C80.9026 14.68 80.8066 14.104 80.8066 13.432C80.8226 12.696 80.9186 12.088 81.0946 11.608C81.2866 11.112 81.5666 10.744 81.9346 10.504C82.3026 10.264 82.7586 10.144 83.3026 10.144C83.7346 10.144 84.1106 10.24 84.4306 10.432C84.7506 10.624 84.9986 10.896 85.1746 11.248C85.3506 11.6 85.4386 12.016 85.4386 12.496C85.4386 12.608 85.4066 12.752 85.3426 12.928C85.2946 13.088 85.2306 13.224 85.1506 13.336L86.0146 12.232H79.1986V14.248H89.2786C89.3106 14.136 89.3266 14 89.3266 13.84C89.3266 13.664 89.3266 13.488 89.3266 13.312C89.3266 12.128 89.0946 11.12 88.6306 10.288C88.1666 9.456 87.4946 8.824 86.6146 8.392C85.7346 7.944 84.6546 7.72 83.3746 7.72C82.0946 7.72 80.9826 7.952 80.0386 8.416C79.1106 8.88 78.3986 9.544 77.9026 10.408C77.4066 11.272 77.1586 12.296 77.1586 13.48C77.1586 14.648 77.4146 15.664 77.9266 16.528C78.4386 17.392 79.1586 18.064 80.0866 18.544C81.0306 19.008 82.1426 19.24 83.4226 19.24ZM99.9404 0.279999V19H103.564V0.279999H99.9404ZM90.9164 13.48C90.9164 14.712 91.1644 15.76 91.6604 16.624C92.1724 17.472 92.8284 18.12 93.6284 18.568C94.4284 19.016 95.2764 19.24 96.1724 19.24C97.1004 19.24 97.9164 19.008 98.6204 18.544C99.3404 18.08 99.9084 17.416 100.324 16.552C100.74 15.688 100.948 14.664 100.948 13.48C100.948 12.28 100.74 11.256 100.324 10.408C99.9084 9.544 99.3404 8.88 98.6204 8.416C97.9164 7.952 97.1004 7.72 96.1724 7.72C95.2764 7.72 94.4284 7.944 93.6284 8.392C92.8284 8.84 92.1724 9.488 91.6604 10.336C91.1644 11.184 90.9164 12.232 90.9164 13.48ZM94.7324 13.48C94.7324 12.904 94.8524 12.408 95.0924 11.992C95.3324 11.56 95.6524 11.232 96.0524 11.008C96.4524 10.768 96.8924 10.648 97.3724 10.648C97.7884 10.648 98.1884 10.76 98.5724 10.984C98.9724 11.208 99.3004 11.536 99.5564 11.968C99.8124 12.384 99.9404 12.888 99.9404 13.48C99.9404 14.072 99.8124 14.584 99.5564 15.016C99.3004 15.432 98.9724 15.752 98.5724 15.976C98.1884 16.2 97.7884 16.312 97.3724 16.312C96.8924 16.312 96.4524 16.2 96.0524 15.976C95.6524 15.736 95.3324 15.408 95.0924 14.992C94.8524 14.56 94.7324 14.056 94.7324 13.48ZM117.172 0.279999H113.548V19H117.172V0.279999ZM126.196 13.48C126.196 12.232 125.94 11.184 125.428 10.336C124.932 9.488 124.284 8.84 123.484 8.392C122.7 7.944 121.852 7.72 120.94 7.72C120.028 7.72 119.212 7.952 118.492 8.416C117.772 8.88 117.204 9.544 116.788 10.408C116.372 11.256 116.164 12.28 116.164 13.48C116.164 14.664 116.372 15.688 116.788 16.552C117.204 17.416 117.772 18.08 118.492 18.544C119.212 19.008 120.028 19.24 120.94 19.24C121.852 19.24 122.7 19.016 123.484 18.568C124.284 18.12 124.932 17.472 125.428 16.624C125.94 15.76 126.196 14.712 126.196 13.48ZM122.38 13.48C122.38 14.056 122.26 14.56 122.02 14.992C121.78 15.408 121.46 15.736 121.06 15.976C120.66 16.2 120.22 16.312 119.74 16.312C119.324 16.312 118.916 16.2 118.516 15.976C118.132 15.752 117.812 15.432 117.556 15.016C117.3 14.584 117.172 14.072 117.172 13.48C117.172 12.888 117.3 12.384 117.556 11.968C117.812 11.536 118.132 11.208 118.516 10.984C118.916 10.76 119.324 10.648 119.74 10.648C120.22 10.648 120.66 10.768 121.06 11.008C121.46 11.232 121.78 11.56 122.02 11.992C122.26 12.408 122.38 12.904 122.38 13.48ZM139.337 7.96H135.617L132.089 16.792L133.961 16.816L130.385 7.96H126.401L131.177 18.112L128.489 24.28H132.137L139.337 7.96ZM151.128 10.648H154.272C155.44 10.648 156.464 10.488 157.344 10.168C158.24 9.832 158.944 9.352 159.456 8.728C159.984 8.104 160.248 7.352 160.248 6.472C160.248 5.512 159.984 4.72 159.456 4.096C158.944 3.456 158.24 2.984 157.344 2.68C156.464 2.36 155.44 2.2 154.272 2.2H148.104V19H154.68C156.008 19 157.16 18.84 158.136 18.52C159.112 18.184 159.864 17.672 160.392 16.984C160.936 16.296 161.208 15.392 161.208 14.272C161.208 13.424 161.016 12.704 160.632 12.112C160.264 11.504 159.768 11.008 159.144 10.624C158.52 10.224 157.824 9.936 157.056 9.76C156.288 9.584 155.496 9.496 154.68 9.496H151.128V11.704H154.224C154.624 11.704 154.984 11.744 155.304 11.824C155.64 11.888 155.936 12 156.192 12.16C156.448 12.32 156.648 12.528 156.792 12.784C156.936 13.04 157.008 13.344 157.008 13.696C157.008 14.24 156.88 14.672 156.624 14.992C156.384 15.296 156.056 15.52 155.64 15.664C155.224 15.792 154.752 15.856 154.224 15.856H152.16V5.344H153.84C154.544 5.344 155.088 5.488 155.472 5.776C155.856 6.064 156.048 6.496 156.048 7.072C156.048 7.456 155.96 7.784 155.784 8.056C155.608 8.312 155.352 8.512 155.016 8.656C154.696 8.8 154.304 8.872 153.84 8.872H151.128V10.648ZM167.258 7.96H163.682V19H167.258V7.96ZM170.45 11.704L172.01 8.608C171.818 8.32 171.538 8.096 171.17 7.936C170.802 7.776 170.418 7.696 170.018 7.696C169.41 7.696 168.826 7.896 168.266 8.296C167.706 8.696 167.25 9.24 166.898 9.928C166.562 10.616 166.394 11.4 166.394 12.28L167.258 13.552C167.258 13.024 167.33 12.576 167.474 12.208C167.618 11.84 167.826 11.56 168.098 11.368C168.37 11.176 168.682 11.08 169.034 11.08C169.354 11.08 169.618 11.136 169.826 11.248C170.05 11.36 170.258 11.512 170.45 11.704ZM172.549 13.48C172.549 14.632 172.821 15.64 173.365 16.504C173.909 17.368 174.661 18.04 175.621 18.52C176.581 19 177.661 19.24 178.861 19.24C180.061 19.24 181.133 19 182.077 18.52C183.037 18.04 183.789 17.368 184.333 16.504C184.893 15.64 185.173 14.632 185.173 13.48C185.173 12.312 184.893 11.296 184.333 10.432C183.789 9.568 183.037 8.896 182.077 8.416C181.133 7.936 180.061 7.696 178.861 7.696C177.661 7.696 176.581 7.936 175.621 8.416C174.661 8.896 173.909 9.568 173.365 10.432C172.821 11.296 172.549 12.312 172.549 13.48ZM176.269 13.48C176.269 12.904 176.389 12.408 176.629 11.992C176.869 11.576 177.181 11.256 177.565 11.032C177.949 10.808 178.381 10.696 178.861 10.696C179.325 10.696 179.749 10.808 180.133 11.032C180.533 11.256 180.845 11.576 181.069 11.992C181.309 12.408 181.429 12.904 181.429 13.48C181.429 14.056 181.309 14.552 181.069 14.968C180.845 15.368 180.533 15.68 180.133 15.904C179.749 16.128 179.325 16.24 178.861 16.24C178.381 16.24 177.949 16.128 177.565 15.904C177.181 15.68 176.869 15.368 176.629 14.968C176.389 14.552 176.269 14.056 176.269 13.48Z" fill="white"/>
</svg>
