<svg width="427" height="201" viewBox="0 0 427 201" fill="none" xmlns="http://www.w3.org/2000/svg">
<g filter="url(#filter0_d_166_52)">
<path d="M17.3953 137.015C23.1566 137.015 28.3149 141.429 28.3149 148.137C28.3149 155.382 23.3922 159.914 17.1928 159.914C10.7202 159.914 6 154.996 6 148.655C6 142.635 10.2821 137.015 17.3953 137.015ZM16.7217 138.263C12.9531 138.263 9.50481 141.429 9.50481 147.732C9.50481 154.035 12.9437 158.619 17.7298 158.619C21.8093 158.619 24.8761 155.585 24.8761 149.084C24.8761 142.004 21.1357 138.263 16.7217 138.263Z" fill="white"/>
<path d="M31.5459 142.207C33.0958 141.533 34.1745 140.521 34.1745 139.381C34.1745 138.241 33.0298 137.798 31.9511 137.595C31.7155 137.562 31.48 137.086 31.48 136.653C31.48 135.744 32.1866 135.136 33.1994 135.136C34.6786 135.136 36.1625 136.352 36.1625 138.575C36.1625 140.968 34.0756 142.551 31.9511 143.159L31.5459 142.207Z" fill="white"/>
<path d="M49.7489 155.082C49.3108 156.396 48.6324 158.318 48.298 159.397H36.9921L36.7896 158.855C39.7196 154.615 42.5885 150.126 45.349 145.778H42.0798C39.6867 145.778 39.2815 146.15 37.9672 149.047L37.0251 148.746C37.4596 147.148 37.8087 145.528 38.0709 143.894H38.8105C39.013 144.398 39.4511 144.6 40.6948 144.6H48.6466L48.8491 145.104C46.1875 149.151 43.2245 153.734 40.4263 158.219H44.03C46.5927 158.219 47.3699 157.541 48.8868 154.709L49.7489 155.082Z" fill="white"/>
<path d="M58.2053 144.52C58.6738 144.313 59.1775 144.198 59.6892 144.18C63.2977 144.18 66.3267 147.313 66.3267 151.327C66.3267 155.877 62.4167 159.806 58.0028 159.806C56.2084 159.777 54.4412 159.362 52.8209 158.591V139.644C52.8209 137.557 52.722 137.355 50.5645 137.185V136.309C52.2366 136.077 53.8843 135.694 55.4872 135.164V145.711L58.2053 144.52ZM55.4778 155.472C55.4526 155.872 55.5087 156.272 55.6427 156.65C56.0478 157.493 57.3621 158.473 58.9826 158.473C61.8797 158.473 63.3306 155.976 63.3306 152.17C63.3306 148.364 61.0035 146.069 58.2053 146.069C57.2603 146.082 56.3294 146.3 55.4778 146.71V155.472Z" fill="white"/>
<path d="M81.2221 156.532C79.0692 159.227 76.7091 159.802 75.6304 159.802C71.5179 159.802 69.0353 156.429 69.0353 152.552C69.0005 150.38 69.7841 148.274 71.2305 146.654C71.85 145.917 72.6168 145.317 73.4815 144.894C74.3463 144.47 75.29 144.232 76.2522 144.195C77.6228 144.222 78.9286 144.783 79.8913 145.759C80.854 146.735 81.3974 148.048 81.4058 149.419C81.3728 150.093 81.2739 150.399 80.7321 150.531C80.0585 150.667 75.7434 150.969 71.7346 151.106C71.6309 155.623 74.3962 157.474 76.7892 157.474C78.1695 157.474 79.4508 156.9 80.6992 155.755L81.2221 156.532ZM75.4278 145.462C73.878 145.462 72.3611 146.913 71.89 149.64C73.7743 149.64 75.6586 149.64 77.6513 149.542C78.259 149.542 78.4615 149.372 78.4615 148.868C78.4945 147.092 77.3121 145.462 75.4278 145.462Z" fill="white"/>
<path d="M99.7911 159.396C97.9728 159.396 95.9848 159.429 95.2782 159.462C95.0756 159.227 89.7807 152.957 89.5829 152.754C89.1118 152.217 88.9045 152.047 88.603 152.047C88.398 152.04 88.193 152.063 87.9953 152.118V155.858C87.9953 158.115 88.1649 158.252 90.3507 158.454V159.396H82.9077V158.454C85.1642 158.252 85.3338 158.016 85.3338 155.858V139.748C85.3338 137.557 85.0982 137.486 83.0066 137.185V136.309C84.71 136.132 86.3853 135.747 87.9953 135.164V151.237C88.8204 151.081 89.5754 150.669 90.1529 150.06C91.0921 149.079 91.9595 148.032 92.7485 146.927C93.4551 145.947 93.1866 145.678 91.5708 145.542V144.6L98.5145 144.298V145.207C96.1591 145.575 95.4808 145.848 94.0298 147.365C93.3892 148.039 91.8723 149.758 91.1657 150.634C91.8393 151.576 95.2782 155.486 96.3899 156.664C98.0057 158.285 98.4768 158.383 99.7911 158.454V159.396Z" fill="white"/>
<path d="M100.569 159.396V158.454C102.689 158.252 102.924 158.082 102.924 155.788V148.844C102.924 146.757 102.825 146.621 100.804 146.286V145.462C102.44 145.199 104.041 144.752 105.576 144.129V155.788C105.576 158.082 105.812 158.252 108.002 158.454V159.396H100.569ZM104.074 140.826C103.603 140.812 103.156 140.619 102.824 140.286C102.491 139.954 102.298 139.507 102.284 139.036C102.279 138.794 102.323 138.554 102.413 138.329C102.503 138.105 102.636 137.9 102.806 137.728C102.976 137.555 103.178 137.418 103.402 137.325C103.625 137.232 103.865 137.184 104.107 137.185C104.342 137.19 104.575 137.242 104.79 137.338C105.005 137.435 105.199 137.573 105.359 137.746C105.519 137.919 105.643 138.122 105.724 138.344C105.804 138.565 105.839 138.801 105.826 139.036C105.825 139.504 105.641 139.953 105.314 140.288C104.986 140.622 104.541 140.815 104.074 140.826Z" fill="white"/>
<path d="M118.329 148.608C117.721 146.653 116.845 145.311 114.791 145.311C114.506 145.303 114.222 145.356 113.959 145.464C113.695 145.573 113.457 145.736 113.26 145.942C113.063 146.149 112.911 146.394 112.815 146.662C112.718 146.931 112.679 147.217 112.699 147.501C112.699 148.952 113.679 149.626 115.564 150.502C118.465 151.882 119.912 152.895 119.912 155.118C119.912 158.223 117.085 159.829 114.419 159.829C113.027 159.837 111.653 159.514 110.41 158.887C110.24 157.912 109.939 156.061 109.802 154.944L110.777 154.779C111.385 156.932 112.563 158.684 114.923 158.684C115.231 158.699 115.538 158.651 115.826 158.542C116.114 158.433 116.377 158.266 116.598 158.051C116.819 157.837 116.993 157.579 117.11 157.294C117.227 157.009 117.284 156.703 117.278 156.395C117.278 154.878 116.369 154.101 114.584 153.225C112.228 152.08 110.302 151.001 110.302 148.575C110.302 146.149 112.393 144.227 115.559 144.227C116.649 144.272 117.732 144.419 118.795 144.665C118.899 145.475 119.134 147.6 119.304 148.406L118.329 148.608Z" fill="white"/>
<path d="M128.405 159.364C127.96 159.616 127.464 159.766 126.954 159.802C124.796 159.802 123.656 158.488 123.656 155.788V145.98H121.334L121.197 145.575L122.106 144.6H123.656V141.774C124.297 141.1 125.277 140.224 125.917 139.55L126.422 139.616C126.356 141.029 126.318 142.989 126.318 144.605H130.162C130.303 144.82 130.36 145.079 130.323 145.334C130.285 145.588 130.156 145.82 129.959 145.985H126.304V154.615C126.304 157.343 127.383 157.852 128.259 157.852C128.977 157.827 129.68 157.642 130.317 157.31L130.619 158.186L128.405 159.364Z" fill="white"/>
<path d="M139.122 144.195C143.333 144.195 146.47 147.398 146.47 151.732C146.47 157.192 142.424 159.787 139.122 159.787C138.131 159.798 137.149 159.61 136.233 159.235C135.317 158.859 134.485 158.303 133.788 157.601C133.09 156.898 132.541 156.062 132.172 155.143C131.803 154.224 131.623 153.24 131.641 152.25C131.641 146.79 135.918 144.195 139.122 144.195ZM138.717 145.34C136.663 145.34 134.807 147.327 134.807 151.237C134.807 155.52 136.691 158.619 139.461 158.619C141.548 158.619 143.3 157.102 143.3 152.495C143.3 148.543 141.684 145.34 138.717 145.34Z" fill="white"/>
<path d="M158.337 159.396V158.454C160.292 158.252 160.494 158.016 160.494 155.722V150.173C160.494 147.817 159.651 146.23 157.428 146.23C156.043 146.23 154.728 147.04 153.687 147.982V155.873C153.687 158.195 153.885 158.266 155.878 158.468V159.411H148.59V158.468C150.814 158.233 151.016 158.096 151.016 155.873V148.915C151.016 146.725 150.781 146.621 148.962 146.319V145.462C150.584 145.217 152.167 144.764 153.673 144.115V146.776C154.347 146.305 155.086 145.796 155.963 145.226C156.776 144.621 157.749 144.269 158.761 144.214C161.455 144.214 163.142 146.202 163.142 149.471V155.878C163.142 158.167 163.344 158.271 165.299 158.473V159.415L158.337 159.396Z" fill="white"/>
<path d="M194.327 159.396V158.454C197.087 158.181 197.191 157.983 197.153 154.375L197.186 140.624C194.421 146.79 189.974 156.429 188.791 159.396H187.92C186.775 156.33 182.964 147.059 180.406 140.958C179.832 152.735 179.799 155.42 179.799 156.061C179.832 157.945 180.675 158.219 182.964 158.454V159.396H174.979V158.454C176.934 158.252 177.74 157.846 178.013 156.023C178.216 154.544 178.249 153.329 179.125 141.024C179.257 139.272 178.922 138.702 175.955 138.433V137.491H181.82L189.267 154.582L197.276 137.491H203.173V138.433C200.276 138.768 199.904 139.074 199.975 141.429L200.107 154.375C200.243 157.978 200.342 158.143 203.31 158.454V159.396H194.327Z" fill="white"/>
<path d="M204.837 159.396V158.454C206.961 158.252 207.192 158.082 207.192 155.788V148.844C207.192 146.757 207.093 146.621 205.068 146.286V145.462C206.711 145.196 208.318 144.744 209.859 144.115V155.774C209.859 158.068 210.094 158.237 212.285 158.44V159.382L204.837 159.396ZM208.346 140.826C207.876 140.812 207.429 140.619 207.096 140.286C206.764 139.954 206.571 139.507 206.556 139.036C206.552 138.794 206.596 138.554 206.686 138.329C206.775 138.105 206.909 137.9 207.079 137.728C207.249 137.555 207.451 137.418 207.674 137.325C207.898 137.232 208.137 137.184 208.379 137.185C208.615 137.19 208.847 137.242 209.063 137.338C209.278 137.435 209.471 137.573 209.632 137.746C209.792 137.919 209.916 138.122 209.996 138.344C210.077 138.565 210.112 138.801 210.099 139.036C210.098 139.504 209.914 139.953 209.587 140.288C209.259 140.622 208.814 140.815 208.346 140.826Z" fill="white"/>
<path d="M213.703 159.396V158.454C215.86 158.252 216.129 158.082 216.129 155.858V139.71C216.129 137.656 215.959 137.453 213.802 137.185V136.309C215.5 136.105 217.173 135.721 218.79 135.164V155.858C218.79 158.082 218.993 158.252 221.183 158.454V159.396H213.703Z" fill="white"/>
<path d="M222.667 159.396V158.454C224.825 158.252 225.094 158.082 225.094 155.858V139.71C225.094 137.656 224.924 137.453 222.766 137.185V136.309C224.465 136.105 226.137 135.721 227.755 135.164V155.858C227.755 158.082 227.958 158.252 230.148 158.454V159.396H222.667Z" fill="white"/>
<path d="M231.9 159.396V158.454C234.025 158.252 234.256 158.082 234.256 155.788V148.844C234.256 146.757 234.152 146.621 232.131 146.286V145.462C233.773 145.196 235.378 144.744 236.917 144.115V155.774C236.917 158.068 237.153 158.237 239.343 158.44V159.382L231.9 159.396ZM235.405 140.826C234.936 140.811 234.49 140.617 234.158 140.285C233.826 139.952 233.634 139.506 233.62 139.036C233.615 138.795 233.659 138.555 233.749 138.33C233.838 138.106 233.971 137.902 234.141 137.729C234.31 137.557 234.512 137.42 234.735 137.327C234.957 137.233 235.197 137.185 235.438 137.185C235.674 137.19 235.906 137.242 236.121 137.338C236.337 137.435 236.53 137.573 236.691 137.746C236.851 137.919 236.975 138.122 237.055 138.344C237.135 138.565 237.17 138.801 237.158 139.036C237.158 139.505 236.974 139.954 236.647 140.289C236.319 140.624 235.873 140.817 235.405 140.826Z" fill="white"/>
<path d="M255.85 145.509C254.097 145.778 253.725 146.051 252.882 147.968C252.039 149.886 251.129 152.151 248.802 158.016C247.528 161.033 246.415 164.115 245.467 167.249C245.265 167.956 244.897 168.126 244.454 168.126C243.38 168.126 242.4 167.348 242.4 166.51C242.4 166.072 242.636 165.766 243.14 165.327C244.071 164.677 244.844 163.825 245.401 162.835C246.108 161.422 246.612 160.24 246.781 159.802C246.928 159.347 246.905 158.855 246.715 158.417C245.401 154.578 243.578 150.408 242.57 148.006C241.826 146.15 241.524 145.745 239.673 145.509V144.6H246.48V145.509C244.93 145.745 244.761 146.084 245.199 147.328L248.468 155.623C249.41 153.296 250.757 149.556 251.469 147.431C251.874 146.15 251.633 145.778 249.683 145.509V144.6H255.85V145.509Z" fill="white"/>
<path d="M287.478 138.433C285.353 138.565 284.576 139.106 284.51 140.656C284.477 141.429 284.411 142.847 284.411 145.947V149.588C284.411 153.027 284.006 155.655 282.056 157.709C280.468 159.363 278.179 159.867 275.852 159.867C273.897 159.867 271.81 159.462 270.326 158.317C268.3 156.767 267.325 154.44 267.325 150.497V141.905C267.325 138.871 267.057 138.668 264.357 138.433V137.491H273.223V138.433C270.529 138.598 270.26 138.871 270.26 141.905V150.328C270.26 155.25 272.582 157.945 276.629 157.945C281.415 157.945 282.932 154.982 282.932 149.385V145.932C282.932 142.833 282.828 141.551 282.762 140.642C282.659 139.125 281.886 138.551 279.389 138.419V137.477H287.483L287.478 138.433Z" fill="white"/>
<path d="M297.182 159.396V158.454C299.137 158.252 299.34 158.016 299.34 155.722V150.173C299.34 147.817 298.497 146.23 296.273 146.23C294.888 146.23 293.574 147.04 292.528 147.982V155.873C292.528 158.195 292.731 158.266 294.723 158.468V159.411H287.44V158.468C289.664 158.233 289.866 158.096 289.866 155.873V148.915C289.866 146.725 289.631 146.621 287.813 146.319V145.462C289.434 145.218 291.018 144.765 292.523 144.115V146.776C293.202 146.305 293.937 145.796 294.817 145.226C295.63 144.621 296.604 144.269 297.616 144.214C300.31 144.214 301.997 146.202 301.997 149.471V155.878C301.997 158.167 302.199 158.271 304.154 158.473V159.415L297.182 159.396Z" fill="white"/>
<path d="M306.114 159.396V158.454C308.234 158.252 308.469 158.082 308.469 155.788V148.844C308.469 146.757 308.37 146.621 306.349 146.286V145.462C307.991 145.196 309.596 144.744 311.135 144.115V155.774C311.135 158.068 311.371 158.237 313.561 158.44V159.382L306.114 159.396ZM309.619 140.826C309.148 140.812 308.701 140.619 308.368 140.286C308.036 139.954 307.843 139.507 307.828 139.036C307.824 138.794 307.868 138.554 307.958 138.329C308.047 138.105 308.181 137.9 308.351 137.728C308.521 137.555 308.723 137.418 308.947 137.325C309.17 137.232 309.41 137.184 309.652 137.185C309.887 137.19 310.12 137.242 310.335 137.338C310.55 137.435 310.743 137.573 310.904 137.746C311.064 137.919 311.188 138.122 311.269 138.344C311.349 138.565 311.384 138.801 311.371 139.036C311.37 139.504 311.186 139.953 310.859 140.288C310.531 140.622 310.086 140.815 309.619 140.826Z" fill="white"/>
<path d="M329.941 145.509C328.118 145.745 327.883 146.013 327.006 148.039C325.895 150.734 323.973 155.218 322.22 159.769H321.245C319.832 155.892 318.178 151.878 316.591 147.935C315.818 145.98 315.55 145.778 313.797 145.509V144.6H320.67V145.509C318.819 145.745 318.748 145.98 319.29 147.431C320.133 149.758 321.547 153.329 322.493 155.689C323.704 152.689 324.816 149.923 325.56 147.766C326.13 146.117 326.031 145.745 323.808 145.509V144.6H329.932L329.941 145.509Z" fill="white"/>
<path d="M342.882 156.532C340.724 159.227 338.364 159.802 337.285 159.802C333.173 159.802 330.69 156.429 330.69 152.552C330.654 150.38 331.436 148.275 332.881 146.654C333.5 145.917 334.267 145.317 335.132 144.894C335.996 144.47 336.94 144.232 337.902 144.195C339.278 144.216 340.59 144.774 341.558 145.751C342.527 146.727 343.075 148.044 343.084 149.419C343.047 150.093 342.948 150.399 342.406 150.531C341.732 150.667 337.422 150.969 333.408 151.106C333.309 155.623 336.07 157.474 338.463 157.474C339.848 157.474 341.129 156.9 342.373 155.755L342.882 156.532ZM337.083 145.462C335.533 145.462 334.016 146.913 333.545 149.64C335.429 149.64 337.314 149.64 339.306 149.542C339.914 149.542 340.116 149.372 340.116 148.868C340.173 147.092 338.972 145.462 337.083 145.462Z" fill="white"/>
<path d="M352.821 159.397H345.072V158.455C347.192 158.252 347.395 158.082 347.395 155.892V148.882C347.395 146.654 347.263 146.555 345.308 146.32V145.462C346.947 145.219 348.547 144.76 350.066 144.096V147.818C351.243 146.065 352.661 144.209 354.343 144.209C355.591 144.209 356.298 144.987 356.298 145.83C356.278 146.21 356.163 146.579 355.963 146.902C355.763 147.226 355.484 147.494 355.153 147.681C355.024 147.779 354.864 147.826 354.703 147.814C354.541 147.802 354.39 147.731 354.277 147.615C353.773 147.106 353.368 146.772 352.76 146.772C352.054 146.772 350.805 147.818 350.066 149.537V155.873C350.066 158.097 350.231 158.266 352.826 158.469L352.821 159.397Z" fill="white"/>
<path d="M366.2 148.608C365.597 146.653 364.721 145.311 362.662 145.311C362.377 145.304 362.094 145.357 361.831 145.466C361.568 145.575 361.331 145.738 361.134 145.944C360.938 146.15 360.786 146.395 360.69 146.664C360.594 146.932 360.555 147.217 360.575 147.501C360.575 148.952 361.55 149.626 363.439 150.502C366.336 151.882 367.787 152.895 367.787 155.118C367.787 158.223 364.961 159.829 362.29 159.829C360.898 159.837 359.524 159.514 358.281 158.887C358.111 157.912 357.81 156.061 357.673 154.944L358.653 154.779C359.256 156.932 360.439 158.684 362.799 158.684C363.106 158.699 363.414 158.651 363.702 158.542C363.99 158.433 364.253 158.266 364.474 158.051C364.695 157.837 364.869 157.579 364.986 157.294C365.103 157.009 365.16 156.703 365.154 156.395C365.154 154.878 364.24 154.101 362.455 153.225C360.099 152.08 358.177 151.001 358.177 148.575C358.177 146.149 360.264 144.227 363.435 144.227C364.525 144.273 365.608 144.419 366.671 144.665C366.77 145.475 367.005 147.6 367.175 148.406L366.2 148.608Z" fill="white"/>
<path d="M369.94 159.396V158.454C372.064 158.252 372.295 158.082 372.295 155.788V148.844C372.295 146.757 372.196 146.621 370.171 146.286V145.462C371.812 145.196 373.418 144.744 374.957 144.115V155.774C374.957 158.068 375.192 158.237 377.383 158.44V159.382L369.94 159.396ZM373.445 140.826C372.975 140.811 372.529 140.617 372.198 140.285C371.866 139.952 371.674 139.506 371.659 139.036C371.655 138.794 371.699 138.554 371.789 138.329C371.878 138.105 372.012 137.9 372.182 137.728C372.352 137.555 372.554 137.418 372.777 137.325C373.001 137.232 373.24 137.184 373.482 137.185C373.718 137.19 373.95 137.243 374.164 137.34C374.379 137.436 374.572 137.575 374.732 137.748C374.892 137.92 375.015 138.123 375.095 138.345C375.175 138.566 375.21 138.801 375.197 139.036C375.197 139.505 375.014 139.954 374.686 140.289C374.359 140.624 373.913 140.817 373.445 140.826Z" fill="white"/>
<path d="M385.514 159.364C385.069 159.616 384.573 159.766 384.063 159.802C381.905 159.802 380.765 158.488 380.765 155.788V145.98H378.438L378.306 145.575L379.215 144.6H380.765V141.774C381.406 141.1 382.381 140.224 383.022 139.55L383.53 139.616C383.46 141.029 383.427 142.989 383.427 144.605H387.28C387.421 144.82 387.478 145.079 387.441 145.334C387.404 145.588 387.274 145.82 387.078 145.985H383.436V154.615C383.436 157.343 384.515 157.852 385.391 157.852C386.109 157.826 386.812 157.641 387.45 157.31L387.751 158.181L385.514 159.364Z" fill="white"/>
<path d="M400.941 156.532C398.784 159.227 396.428 159.802 395.35 159.802C391.237 159.802 388.754 156.429 388.754 152.552C388.72 150.381 389.502 148.276 390.945 146.654C391.565 145.917 392.332 145.318 393.196 144.895C394.061 144.471 395.005 144.233 395.967 144.195C397.342 144.215 398.655 144.773 399.624 145.749C400.593 146.726 401.14 148.043 401.149 149.419C401.116 150.093 401.012 150.399 400.475 150.531C399.801 150.667 395.486 150.969 391.477 151.106C391.374 155.623 394.139 157.474 396.532 157.474C397.912 157.474 399.194 156.9 400.442 155.755L400.941 156.532ZM395.152 145.462C393.602 145.462 392.085 146.913 391.609 149.64C393.494 149.64 395.378 149.64 397.375 149.542C397.983 149.542 398.185 149.372 398.185 148.868C398.218 147.092 397.036 145.462 395.152 145.462Z" fill="white"/>
<path d="M409.944 159.364C409.501 159.616 409.007 159.766 408.498 159.802C406.341 159.802 405.201 158.488 405.201 155.788V145.98H402.878L402.742 145.575L403.651 144.6H405.182V141.774C405.823 141.1 406.802 140.224 407.443 139.55L407.947 139.616C407.881 141.029 407.848 142.989 407.848 144.605H411.687C411.829 144.82 411.887 145.079 411.85 145.334C411.813 145.588 411.683 145.82 411.485 145.985H407.848V154.615C407.848 157.343 408.927 157.852 409.803 157.852C410.52 157.826 411.221 157.641 411.857 157.31L412.159 158.186L409.944 159.364Z" fill="white"/>
<path d="M413.552 159.396V158.454C415.672 158.252 415.907 158.082 415.907 155.788V148.844C415.907 146.757 415.808 146.621 413.787 146.286V145.462C415.429 145.196 417.034 144.744 418.573 144.115V155.774C418.573 158.068 418.809 158.237 420.999 158.44V159.382L413.552 159.396ZM417.057 140.826C416.587 140.812 416.14 140.619 415.808 140.286C415.476 139.953 415.284 139.506 415.271 139.036C415.266 138.795 415.31 138.554 415.399 138.33C415.488 138.105 415.621 137.9 415.791 137.728C415.96 137.555 416.162 137.418 416.385 137.325C416.608 137.232 416.848 137.184 417.09 137.185C417.325 137.19 417.558 137.242 417.773 137.338C417.988 137.435 418.181 137.573 418.342 137.746C418.502 137.919 418.626 138.122 418.707 138.344C418.787 138.565 418.822 138.801 418.809 139.036C418.808 139.504 418.624 139.953 418.297 140.288C417.969 140.622 417.524 140.815 417.057 140.826Z" fill="white"/>
<path d="M131.603 167.909H140.601V168.851C137.972 169.086 137.501 169.322 137.501 172.323V178.117C138.175 178.051 138.947 177.509 139.927 176.567C141.811 174.782 144.072 172.488 145.622 170.735C146.635 169.59 146.531 169.152 145.081 168.95L144.138 168.851V167.909H152.33V168.851C149.801 169.152 148.925 169.322 146.677 171.644C145.665 172.624 143.036 175.187 140.879 177.297C143.441 180.331 147.182 184.646 148.934 186.502C150.686 188.358 151.091 188.627 153.174 188.857V189.8H147.78C145.184 186.865 142.452 183.596 139.385 180.025C138.613 179.083 138.038 179.012 137.501 179.045V185.452C137.501 188.382 137.802 188.622 140.601 188.857V189.8H131.603V188.857C134.364 188.622 134.632 188.386 134.632 185.452V172.313C134.632 169.28 134.397 169.039 131.603 168.841V167.909Z" fill="white"/>
<path d="M169.888 189.042C168.143 189.313 166.42 189.705 164.729 190.215V187.619C162.911 189.136 161.432 190.215 159.576 190.215C157.315 190.215 155.36 188.83 155.36 185.16V178.631C155.36 176.808 155.091 176.605 154.248 176.436L153.306 176.271V175.395C154.922 175.276 156.53 175.073 158.125 174.787C158.021 175.866 158.021 177.482 158.021 179.705V184.289C158.021 187.257 159.576 188.1 161.093 188.1C162.468 188.052 163.772 187.473 164.729 186.484V178.631C164.729 176.808 164.324 176.572 163.179 176.403L162.105 176.271V175.395C163.879 175.291 165.645 175.088 167.396 174.787V186.093C167.396 187.775 167.669 188.015 168.95 188.081L169.892 188.114L169.888 189.042Z" fill="white"/>
<path d="M178.179 189.785C177.728 190.037 177.225 190.183 176.709 190.214C174.552 190.214 173.412 188.9 173.412 186.2V176.402H171.085L170.953 175.997L171.862 175.022H173.412V172.195C174.052 171.522 175.027 170.645 175.668 169.972L176.177 170.038C176.106 171.451 176.073 173.411 176.073 175.026H179.917C180.058 175.241 180.115 175.501 180.078 175.755C180.041 176.009 179.911 176.241 179.715 176.407H176.073V185.032C176.073 187.76 177.152 188.268 178.028 188.268C178.745 188.243 179.446 188.058 180.082 187.727L180.388 188.603L178.179 189.785Z" fill="white"/>
<path d="M197.658 189.042C195.906 189.315 194.174 189.711 192.476 190.224V187.629C190.658 189.146 189.179 190.224 187.323 190.224C185.062 190.224 183.107 188.839 183.107 185.17V178.631C183.107 176.808 182.838 176.605 181.995 176.436L181.053 176.271V175.395C182.669 175.276 184.277 175.073 185.872 174.787C185.768 175.866 185.768 177.482 185.768 179.705V184.289C185.768 187.257 187.323 188.1 188.835 188.1C190.212 188.053 191.518 187.474 192.476 186.484V178.631C192.476 176.808 192.071 176.572 190.927 176.403L189.848 176.271V175.395C191.621 175.291 193.387 175.088 195.138 174.787V186.093C195.138 187.775 195.411 188.015 196.692 188.081L197.635 188.114L197.658 189.042Z" fill="white"/>
<path d="M206.081 174.956C206.549 174.749 207.053 174.634 207.565 174.617C211.173 174.617 214.207 177.749 214.207 181.763C214.207 186.313 210.297 190.242 205.878 190.242C204.084 190.214 202.316 189.799 200.696 189.027V170.066C200.696 167.979 200.593 167.776 198.435 167.607V166.731C200.107 166.499 201.755 166.116 203.358 165.586V176.133L206.081 174.956ZM203.353 185.908C203.327 186.308 203.384 186.71 203.523 187.086C203.923 187.929 205.237 188.909 206.858 188.909C209.755 188.909 211.206 186.412 211.206 182.606C211.206 178.8 208.879 176.482 206.081 176.482C205.136 176.494 204.205 176.713 203.353 177.123V185.908Z" fill="white"/>
<path d="M223.774 189.818V188.876C225.225 188.706 225.527 188.471 224.957 187.562L222.427 183.619C221.687 184.834 220.943 186.012 220.269 187.194C219.596 188.377 219.695 188.645 221.447 188.881V189.823H215.078V188.881C217.203 188.608 217.641 188.372 218.889 186.723C219.831 185.409 220.707 184.095 221.716 182.578L218.814 178.027C217.806 176.407 217.401 176.171 215.516 175.936V175.026H222.29V175.936C220.877 176.138 220.74 176.407 221.348 177.386L223.369 180.453C224.01 179.473 224.683 178.329 225.291 177.316C225.899 176.303 225.663 176.105 224.212 175.936V175.026H230.336V175.936C228.518 176.138 227.811 176.275 226.464 178.027C225.993 178.668 225.183 179.78 224.071 181.466L227.312 186.445C228.593 188.301 228.965 188.603 231.019 188.876V189.818H223.774Z" fill="white"/>
<path d="M239.042 174.617C243.253 174.617 246.391 177.82 246.391 182.154C246.391 187.614 242.344 190.209 239.042 190.209C238.052 190.22 237.07 190.032 236.153 189.657C235.237 189.281 234.406 188.725 233.708 188.022C233.01 187.32 232.461 186.484 232.092 185.565C231.724 184.646 231.543 183.662 231.561 182.672C231.561 177.212 235.839 174.617 239.042 174.617ZM238.637 175.761C236.583 175.761 234.727 177.749 234.727 181.659C234.727 185.941 236.611 189.041 239.381 189.041C241.468 189.041 243.22 187.524 243.22 182.917C243.22 178.965 241.605 175.761 238.637 175.761Z" fill="white"/>
<path d="M258.252 189.818V188.876C260.207 188.673 260.41 188.438 260.41 186.144V180.58C260.41 178.225 259.566 176.637 257.343 176.637C255.958 176.637 254.644 177.448 253.603 178.39V186.28C253.603 188.603 253.805 188.673 255.793 188.876V189.818H248.51V188.876C250.734 188.64 250.936 188.504 250.936 186.28V179.337C250.936 177.146 250.701 177.043 248.882 176.741V175.865C250.504 175.619 252.087 175.167 253.593 174.518V177.179C254.267 176.708 255.006 176.199 255.883 175.629C256.696 175.025 257.669 174.673 258.681 174.617C261.375 174.617 263.062 176.604 263.062 179.874V186.28C263.062 188.57 263.264 188.673 265.219 188.876V189.818H258.252Z" fill="white"/>
<path d="M278.033 190.214C277.446 190.196 276.885 189.969 276.45 189.573C276.046 189.152 275.765 188.627 275.64 188.056C274.293 188.966 272.644 190.214 271.598 190.214C270.504 190.208 269.456 189.768 268.686 188.991C267.915 188.214 267.483 187.163 267.486 186.069C267.486 184.415 268.395 183.336 270.251 182.696C272.305 181.989 274.835 181.113 275.574 180.505V179.85C275.574 177.457 274.359 176.082 272.606 176.082C272.301 176.078 271.998 176.145 271.723 176.28C271.448 176.414 271.209 176.611 271.024 176.854C270.601 177.529 270.294 178.269 270.114 179.045C270.075 179.271 269.953 179.475 269.774 179.618C269.594 179.761 269.369 179.834 269.139 179.822C268.756 179.791 268.397 179.625 268.125 179.353C267.853 179.081 267.687 178.721 267.655 178.338C267.655 177.867 268.094 177.462 268.767 176.991C269.742 176.284 271.697 175.036 273.619 174.636C274.245 174.616 274.869 174.729 275.448 174.968C276.027 175.207 276.549 175.566 276.979 176.021C277.409 176.477 277.737 177.018 277.943 177.61C278.148 178.202 278.226 178.831 278.17 179.455V185.96C278.17 187.51 278.745 187.981 279.348 187.981C279.776 187.958 280.193 187.832 280.563 187.614L280.902 188.556L278.033 190.214ZM275.574 181.688C274.835 182.055 273.219 182.766 272.442 183.101C271.16 183.675 270.383 184.316 270.383 185.56C270.363 185.892 270.411 186.224 270.524 186.537C270.636 186.849 270.812 187.136 271.039 187.379C271.266 187.621 271.54 187.815 271.844 187.949C272.148 188.083 272.477 188.153 272.809 188.155C273.843 188.084 274.82 187.656 275.574 186.945V181.688Z" fill="white"/>
<path d="M290.842 179.031C290.234 177.076 289.358 175.734 287.304 175.734C287.019 175.726 286.735 175.779 286.472 175.887C286.208 175.996 285.97 176.159 285.773 176.365C285.576 176.572 285.424 176.817 285.328 177.085C285.231 177.354 285.192 177.639 285.213 177.924C285.213 179.375 286.192 180.049 288.077 180.925C290.979 182.305 292.425 183.318 292.425 185.541C292.425 188.646 289.598 190.229 286.932 190.229C285.54 190.237 284.166 189.914 282.923 189.286C282.754 188.311 282.452 186.46 282.315 185.343L283.291 185.179C283.898 187.331 285.081 189.084 287.436 189.084C287.744 189.099 288.051 189.05 288.339 188.941C288.627 188.832 288.89 188.665 289.111 188.451C289.332 188.236 289.506 187.978 289.623 187.693C289.74 187.408 289.798 187.102 289.791 186.794C289.791 185.278 288.882 184.5 287.097 183.624C284.741 182.479 282.815 181.401 282.815 178.975C282.815 176.548 284.906 174.626 288.072 174.626C289.162 174.671 290.246 174.818 291.308 175.065C291.412 175.875 291.647 177.999 291.817 178.805L290.842 179.031Z" fill="white"/>
<path d="M294.582 189.818V188.876C296.707 188.673 296.937 188.504 296.937 186.21V179.266C296.937 177.179 296.834 177.043 294.813 176.708V175.898C296.454 175.632 298.06 175.18 299.599 174.551V186.21C299.599 188.504 299.835 188.673 302.025 188.876V189.818H294.582ZM298.087 171.248C297.617 171.233 297.171 171.039 296.84 170.707C296.508 170.374 296.316 169.928 296.301 169.458C296.297 169.217 296.341 168.977 296.43 168.752C296.52 168.528 296.653 168.323 296.822 168.151C296.992 167.979 297.193 167.842 297.416 167.748C297.639 167.655 297.878 167.607 298.12 167.607C298.356 167.612 298.588 167.664 298.803 167.76C299.018 167.857 299.212 167.995 299.372 168.168C299.533 168.341 299.657 168.544 299.737 168.766C299.817 168.987 299.852 169.223 299.839 169.458C299.838 169.926 299.654 170.375 299.327 170.71C299 171.044 298.555 171.237 298.087 171.248Z" fill="white"/>
<path d="M221.168 114.517C243.953 108.808 267.754 108.485 290.685 113.574C290.685 113.574 306.82 101.689 324.928 99.9885C316.235 96.6412 307.136 94.4646 297.869 93.5159C261.031 89.7897 232.333 106.927 221.168 114.517Z" fill="white"/>
<path d="M218.084 112.195C224.388 106.984 231.242 102.477 238.524 98.7551C252.551 91.6432 267.892 87.4979 283.592 86.5777C283.592 86.5777 293.211 69.619 310.759 61.6766C301.428 61.5752 292.126 62.7174 283.097 65.0731C246.9 74.5653 225.871 101.106 218.084 112.195Z" fill="white"/>
<path d="M214.065 108.982C214.065 108.982 239.537 71.6252 266.421 63.7017C266.421 63.7017 275.192 37.9526 283.681 31.1597C283.681 31.1597 241.515 39.9405 214.065 108.982Z" fill="white"/>
<path d="M211.484 107.191C213.159 99.1382 215.635 91.2729 218.875 83.7128C224.925 69.6579 233.497 56.8295 244.167 45.8617C244.167 45.8617 243.315 24.6397 250.39 9.64062C243.085 15.3533 236.599 22.0423 231.114 29.5201C208.903 59.8951 210.283 94.312 211.484 107.191Z" fill="white"/>
<path d="M206.901 106.706C206.901 106.706 200.678 55.7687 214.824 37.3732C214.824 37.3732 205.026 19.8303 205.539 2C205.539 2 176.342 37.1141 206.901 106.706Z" fill="white"/>
<path d="M203.937 108.789C192.023 88.7232 185.145 66.0704 183.893 42.7675C183.893 42.7675 170.076 32.7195 161.305 13.3394C160.525 23.4296 161.174 33.5794 163.232 43.4883C170.585 78.6165 193.814 100.39 203.937 108.789Z" fill="white"/>
<path d="M200.305 110.386C193.789 106.566 187.68 102.089 182.075 97.0262C165.893 82.4228 157.386 65.9917 152.953 55.1004C152.953 55.1004 125.786 47.6526 120.882 36.8979C124.243 47.1508 129.102 56.85 135.302 65.6808C156.627 95.9993 187.709 106.796 200.305 110.386Z" fill="white"/>
<path d="M197.507 112.816C197.507 112.816 143.253 100.865 134.482 82.1958C134.482 82.1958 106.75 83.609 98.2607 76.8208C98.2607 76.8114 118.767 116.278 197.507 112.816Z" fill="white"/>
<path d="M101.657 123.199C108.996 122.612 116.34 122.076 123.689 121.593C131.033 121.079 138.382 120.651 145.731 120.179C153.08 119.708 160.428 119.332 167.782 118.964C175.135 118.597 182.484 118.192 189.838 117.866H190.186L190.516 118.003C194.325 119.591 198.224 120.952 202.194 122.078C203.183 122.351 204.173 122.596 205.152 122.803C205.623 122.902 206.123 122.982 206.655 123.081C207.187 123.18 207.597 123.232 208.068 123.284C209.985 123.477 211.921 123.374 213.806 122.978L213.575 123.048L213.698 123.001L213.825 122.973C214.414 122.85 215.078 122.686 215.709 122.502C216.34 122.318 216.991 122.153 217.626 121.965C218.908 121.593 220.18 121.188 221.452 120.764C222.724 120.34 223.981 119.892 225.22 119.426C226.459 118.959 227.731 118.484 228.989 117.975L229.314 117.848H229.658C236.974 118.187 244.289 118.611 251.605 118.988C258.921 119.365 266.237 119.836 273.553 120.255L284.519 120.957C288.175 121.183 291.832 121.428 295.491 121.692C302.802 122.191 310.11 122.742 317.415 123.345C310.085 123.298 302.756 123.199 295.43 123.048C288.1 122.921 280.774 122.709 273.449 122.53C266.124 122.351 258.799 122.106 251.478 121.838C244.158 121.569 236.832 121.338 229.512 121.027L230.181 120.91C228.909 121.423 227.637 121.932 226.351 122.412C225.065 122.893 223.774 123.355 222.474 123.826C221.174 124.297 219.864 124.692 218.54 125.088C217.876 125.286 217.212 125.479 216.538 125.658C215.865 125.837 215.21 126.007 214.47 126.167L214.715 126.096L214.607 126.139L214.484 126.167C212.264 126.653 209.98 126.778 207.72 126.539C207.154 126.478 206.594 126.398 206.038 126.289C205.482 126.181 204.992 126.101 204.45 125.983C203.381 125.752 202.335 125.489 201.304 125.196C197.221 124.026 193.211 122.614 189.296 120.966L189.97 121.089C182.616 121.381 175.258 121.593 167.904 121.852C160.551 122.111 153.188 122.28 145.83 122.497C138.471 122.714 131.108 122.86 123.746 122.968C116.383 123.077 109.02 123.166 101.657 123.199Z" fill="white"/>
</g>
<defs>
<filter id="filter0_d_166_52" x="0" y="0" width="427" height="200.242" filterUnits="userSpaceOnUse" color-interpolation-filters="sRGB">
<feFlood flood-opacity="0" result="BackgroundImageFix"/>
<feColorMatrix in="SourceAlpha" type="matrix" values="0 0 0 0 0 0 0 0 0 0 0 0 0 0 0 0 0 0 127 0" result="hardAlpha"/>
<feOffset dy="4"/>
<feGaussianBlur stdDeviation="3"/>
<feComposite in2="hardAlpha" operator="out"/>
<feColorMatrix type="matrix" values="0 0 0 0 0 0 0 0 0 0 0 0 0 0 0 0 0 0 0.25 0"/>
<feBlend mode="normal" in2="BackgroundImageFix" result="effect1_dropShadow_166_52"/>
<feBlend mode="normal" in="SourceGraphic" in2="effect1_dropShadow_166_52" result="shape"/>
</filter>
</defs>
</svg>
