<svg width="25" height="26" viewBox="0 0 25 26" fill="none" xmlns="http://www.w3.org/2000/svg">
<path d="M19.0528 18.1724L24.5163 23.6359C24.9805 24.1001 24.9805 24.8525 24.5163 25.3166C24.0522 25.7808 23.2998 25.7808 22.8356 25.3166L17.3721 19.8531C15.5424 21.3168 13.2213 22.1921 10.6959 22.1921C4.78872 22.1921 0 17.4034 0 11.4962C0 5.58901 4.78872 0.800293 10.6959 0.800293C16.6031 0.800293 21.3918 5.58901 21.3918 11.4962C21.3918 14.0216 20.5166 16.3426 19.0528 18.1724ZM10.6959 19.8152C15.2904 19.8152 19.0149 16.0907 19.0149 11.4962C19.0149 6.90172 15.2904 3.17716 10.6959 3.17716C6.10143 3.17716 2.37687 6.90172 2.37687 11.4962C2.37687 16.0907 6.10143 19.8152 10.6959 19.8152Z" fill="white"/>
</svg>
